<?xml version="1.0" encoding="utf-8"?>
<!-- Generator: Adobe Illustrator 19.1.0, SVG Export Plug-In . SVG Version: 6.00 Build 0)  -->
<svg version="1.1" id="Layer_1" xmlns="http://www.w3.org/2000/svg" xmlns:xlink="http://www.w3.org/1999/xlink" x="0px" y="0px"
	 viewBox="0 0 100 100" style="enable-background:new 0 0 100 100;" xml:space="preserve">
<style type="text/css">
	.st0{fill-rule:evenodd;clip-rule:evenodd;fill:#F8B4C4;}
</style>
<path class="st0" d="M53.4,34.7c0.4,0.1,1.9-0.2,2.3,0.1c0.6,0.2,1.6,1.6,2.2,2.1c1.1,0.8,2.2,1.3,3,2.3c1,1.3,1.5,4.1,2.2,5.8
	c0.6,1.7,1.6,3.6,0.9,6c-0.2,0.6-0.5,1.1-0.7,1.6c-0.4,0.9-0.5,1.6-0.8,2.4c-1.2,2.8-3.3,5.1-5.7,6.8c-1.8,1.3-5.5,4.3-9.2,3.3
	c-3.7-1-5.9-2.7-7.9-5.3c-0.2-0.2-0.4-0.4-0.7-0.6c-0.9-1.2-1.7-2.1-2.3-3.6c-0.4-1-1.4-3.3-0.9-5c0.2-0.6,0.5-1.2,0.7-1.8
	c0.1-0.6,0.2-1.1,0.4-1.7c0.9-2.1,2-3.9,3.3-5.6c0.5-0.7,1.4-1.2,2.2-1.8c1-0.8,2.1-1.7,3.2-2.4c1.3-0.8,2.9-1.4,4.3-2
	c0.8-0.3,1.7-0.4,2.5-0.6C52.7,34.7,53.2,34.9,53.4,34.7z"/>
</svg>
