<?xml version="1.0" encoding="utf-8"?>
<!-- Generator: Adobe Illustrator 19.1.0, SVG Export Plug-In . SVG Version: 6.00 Build 0)  -->
<svg version="1.1" id="Layer_1" xmlns="http://www.w3.org/2000/svg" xmlns:xlink="http://www.w3.org/1999/xlink" x="0px" y="0px"
	 viewBox="0 0 100 100" style="enable-background:new 0 0 100 100;" xml:space="preserve">
<style type="text/css">
	.st0{fill-rule:evenodd;clip-rule:evenodd;fill:#A5DCE8;}
</style>
<path class="st0" d="M49.8,24.4c12.4-0.2,18.3,7.4,22.2,16.2c0.6,1.5,1.3,3.2,1.8,4.8c0.2,1,0.3,1.9,0.5,2.9c0.2,0.8,0.8,3,0.6,4.1
	c-0.7,2.9-2,5.4-2.9,7.9c-0.7,1.9-1,3.3-2.1,4.7c-1.5,2.2-3.8,3.9-5.7,5.6c-1.1,1-2.2,1.9-3.3,2.8c-0.4,0.3-0.8,1-1.4,1.1
	c-0.2,0.1-0.5-0.1-0.6-0.1c-0.3,0-1.1,0.1-1.5,0.2c-1.4,0.4-2.9,0.8-4.6,1c-0.3,0-0.7-0.1-1-0.1c-2.7,0-4.3-0.6-6.2-1.4
	c-0.7-0.3-1.3-0.2-2-0.6c-0.6-0.3-1.3-0.9-1.8-1.3c-1.4-0.8-2.7-1.5-3.9-2.4c-2.3-1.7-3.9-4.4-5.6-6.8c-1-1.5-2.5-2.9-3.2-4.7
	c-0.7-1.9-0.3-4.3-0.8-6.4c-0.8-3.7-0.5-8.5,0.7-11.5c0.7-1.8,2-3.3,3.1-4.8c2.4-3.4,4.2-5.6,7.7-7.9c0.8-0.5,1.5-1.2,2.4-1.6
	c1.5-0.6,3-1.2,4.6-1.6C47.4,24.4,49,24.9,49.8,24.4z"/>
</svg>
