<?xml version="1.0" encoding="utf-8"?>
<!-- Generator: Adobe Illustrator 19.1.0, SVG Export Plug-In . SVG Version: 6.00 Build 0)  -->
<svg version="1.1" id="Layer_1" xmlns="http://www.w3.org/2000/svg" xmlns:xlink="http://www.w3.org/1999/xlink" x="0px" y="0px"
	 viewBox="0 0 100 100" style="enable-background:new 0 0 100 100;" xml:space="preserve">
<style type="text/css">
	.st0{fill-rule:evenodd;clip-rule:evenodd;fill:#85888A;}
</style>
<path class="st0" d="M35.1,72.8c0-0.9-0.2-1.9-0.3-2.7c-0.2-0.8-0.1-1.6-0.3-2.4c0-0.2,0-0.3,0-0.5c-0.3-1.1-0.2-2.4-0.5-3.5
	c0-0.4,0-0.8,0-1.3c-0.2-0.7-0.1-1.7-0.2-2.4c0-0.2,0-0.5,0-0.7c-0.2-0.8,0-1.8-0.2-2.6c-0.1-0.6-0.1-1.3-0.2-2
	c-0.4-1.8-0.4-3.7-0.8-5.5c-0.1-0.5,0.2-1.3,0.3-1.7c0.4-1.5,0.4-3,0.8-4.4c0.3-1.1,0.2-2.3,0.5-3.4c0.9-2.8,2.6-5.4,4.2-7.5
	c0.4-0.6,1.3-0.9,1.9-1.4c1.5-1.1,3-2.2,4.9-3c1-0.4,2.3-0.4,3.4-0.6c0.7-0.1,2.4,0.3,2.9,0.5c1.2,0.3,2.3,0.4,3.5,0.7
	c1.2,0.4,2.2,1,3.2,1.6c0.7,0.5,1.5,0.8,2.2,1.3c0.2,0.2,0.5,0.5,0.7,0.7c0.2,0.2,0.5,0.4,0.7,0.6c0.7,1,1.2,2.1,1.8,3.2
	c0.3,0.4,0.6,0.9,0.8,1.4c0.3,0.6,0.3,1.2,0.5,1.9c0.5,1.4,0.8,3,1.2,4.5c0,0.5,0.1,1.1,0.1,1.6c0.3,1.6,0.1,3.4,0.5,4.9
	c0,0.6,0.1,1.2,0.1,1.8c0.3,1.5,0.1,3.2,0.4,4.7c0,0.5,0,1,0.1,1.5c0.2,0.9,0,2,0.2,3c0.1,0.6,0.1,1.3,0.2,1.9c0,0.3,0,0.6,0,0.9
	c0.1,0.4,0.1,1,0.1,1.4c0,0.3,0,0.6,0,1c0.1,0.4,0.1,1,0,1.4c0,1.2,0,2.4,0,3.6c-0.9,0-1.7,0-2.6,0c-0.7,0-1.6,0-2.1,0
	c-1,0.2-2.3-0.1-3,0.1c-1,0.2-1.9-0.1-2.8,0.1c-0.3,0-0.6,0-0.8,0c-1.2,0.3-2.6,0-3.8,0.2c-0.6,0-1.2,0-1.8,0.1
	c-1.3,0.3-3.1,0-4.6,0.3c-0.3,0-0.6,0-1,0c-1.1,0.2-2.4,0-3.4,0.2c-0.3,0-0.7,0-1,0c-0.5,0.1-1.1,0-1.7,0.1c-0.5,0.1-1.2,0-1.8,0.1
	C36.6,72.8,35.9,72.8,35.1,72.8z"/>
</svg>
